<?xml version="1.0" standalone="no"?>
<!DOCTYPE svg PUBLIC "-//W3C//DTD SVG 20010904//EN"
 "http://www.w3.org/TR/2001/REC-SVG-20010904/DTD/svg10.dtd">
<svg version="1.0" xmlns="http://www.w3.org/2000/svg"
 width="957.000000pt" height="710.000000pt" viewBox="0 0 957.000000 710.000000"
 preserveAspectRatio="xMidYMid meet">
<metadata>
Created by potrace 1.16, written by Peter Selinger 2001-2019
</metadata>
<g transform="translate(0.000000,710.000000) scale(0.100000,-0.100000)"
fill="#000000" stroke="none">
<path d="M472 7089 c-53 -10 -174 -63 -222 -97 -82 -58 -172 -166 -217 -259
l-28 -58 0 -3115 0 -3115 40 -80 c30 -60 59 -99 118 -157 156 -155 286 -197
604 -198 l113 0 0 2842 c0 1563 2 2843 4 2845 2 2 158 -116 347 -263 1615
-1255 2250 -1727 2919 -2175 251 -167 618 -399 632 -399 12 0 225 139 463 303
686 471 1387 988 2709 1996 384 293 705 535 712 538 12 4 14 -435 14 -2811 l0
-2816 173 0 c138 0 189 4 249 19 78 20 185 72 233 112 107 91 150 153 219 311
15 33 16 307 14 3085 -3 2929 -4 3050 -21 3088 -82 179 -155 262 -302 345 -99
56 -137 63 -357 68 l-208 4 -292 -218 c-161 -120 -534 -398 -828 -618 -1113
-831 -1792 -1338 -2369 -1769 -276 -206 -392 -287 -411 -287 -19 0 -538 383
-1961 1445 l-1934 1444 -185 0 c-102 -1 -205 -5 -228 -10z"/>
</g>
</svg>
